<svg width="97" height="30" viewBox="0 0 97 30" fill="none" xmlns="http://www.w3.org/2000/svg">
<path d="M15.0909 0C6.75667 0 0 6.7159 0 15.0001C0 23.2847 6.75667 30 15.0909 30C23.4261 30 30.182 23.2847 30.182 15.0001C30.182 6.71647 23.4261 0.000753263 15.0907 0.000753263L15.0909 0ZM22.0117 21.6345C21.9472 21.7393 21.8627 21.8306 21.7627 21.903C21.6628 21.9753 21.5495 22.0274 21.4293 22.0562C21.3092 22.085 21.1844 22.0899 21.0623 22.0707C20.9402 22.0516 20.8231 22.0086 20.7177 21.9444C17.1745 19.7931 12.714 19.3059 7.46106 20.4989C7.21782 20.5539 6.96258 20.5106 6.75141 20.3786C6.54025 20.2466 6.39046 20.0367 6.33495 19.795C6.30728 19.6753 6.30364 19.5514 6.32424 19.4303C6.34484 19.3092 6.38927 19.1933 6.45498 19.0893C6.52069 18.9853 6.6064 18.8952 6.70719 18.8242C6.80799 18.7532 6.92188 18.7026 7.04237 18.6754C12.791 17.3699 17.7219 17.932 21.6998 20.3484C21.8053 20.4125 21.897 20.4966 21.9698 20.5959C22.0425 20.6953 22.0949 20.8079 22.1238 20.9273C22.1528 21.0468 22.1577 21.1707 22.1385 21.2921C22.1192 21.4135 22.076 21.5299 22.0115 21.6346M23.8586 17.5503C23.5178 18.1005 22.7935 18.2743 22.2401 17.9357C18.1839 15.4575 12.0004 14.7397 7.20245 16.1874C6.90379 16.2773 6.58147 16.2457 6.3062 16.0996C6.03094 15.9535 5.82522 15.7048 5.73419 15.4082C5.64416 15.1114 5.67618 14.7912 5.82324 14.5178C5.97029 14.2444 6.22039 14.0401 6.51872 13.9497C11.9994 12.2966 18.8127 13.0974 23.471 15.9426C24.0242 16.2812 24.1991 17.0013 23.8584 17.5505L23.8586 17.5503ZM24.017 13.2972C19.1537 10.4255 11.1289 10.1615 6.48518 11.5626C5.73949 11.7874 4.95099 11.369 4.72516 10.6278C4.61652 10.2717 4.65457 9.88731 4.83096 9.55912C5.00735 9.23092 5.30763 8.98577 5.6658 8.87758C10.9964 7.26898 19.8581 7.5797 25.4578 10.8841C25.6174 10.9779 25.7568 11.1021 25.868 11.2496C25.9792 11.3971 26.0601 11.5649 26.106 11.7435C26.1518 11.9221 26.1618 12.1079 26.1353 12.2903C26.1088 12.4728 26.0463 12.6482 25.9515 12.8066C25.5552 13.4732 24.6865 13.693 24.018 13.2972H24.017ZM41.0572 13.8474C38.4515 13.2297 37.9885 12.7964 37.9885 11.8855C37.9885 11.0249 38.8029 10.4459 40.0156 10.4459C41.1906 10.4459 42.3548 10.8858 43.5766 11.791C43.6126 11.8183 43.6594 11.8292 43.7045 11.8221C43.7271 11.8189 43.7489 11.8111 43.7685 11.7992C43.788 11.7873 43.8049 11.7716 43.8181 11.753L45.0903 9.97037C45.1155 9.93504 45.1261 9.89151 45.1201 9.84865C45.1141 9.80579 45.0918 9.76682 45.0579 9.73968C43.6037 8.58023 41.9674 8.0166 40.0535 8.0166C37.2405 8.0166 35.2745 9.69468 35.2745 12.0959C35.2745 14.6707 36.9701 15.5826 39.9004 16.2863C42.3927 16.8571 42.8142 17.3352 42.8142 18.1902C42.8142 19.1378 41.9636 19.727 40.5942 19.727C39.0733 19.727 37.8316 19.2167 36.444 18.0235C36.4094 17.9945 36.3649 17.9798 36.3197 17.9824C36.2972 17.984 36.2752 17.99 36.2551 18.0001C36.235 18.0102 36.2171 18.0243 36.2025 18.0414L34.7753 19.7287C34.7467 19.7625 34.7323 19.8061 34.7354 19.8502C34.7384 19.8944 34.7586 19.9356 34.7916 19.9652C36.4061 21.3983 38.392 22.1542 40.5364 22.1542C43.5677 22.1542 45.5264 20.5079 45.5264 17.9591C45.5317 15.8083 44.2363 14.6172 41.0627 13.8499L41.0572 13.8474ZM52.385 11.2931C51.0714 11.2931 49.9937 11.8076 49.1035 12.8618V11.6754C49.1035 11.5816 49.0277 11.5053 48.9341 11.5053H46.6004C46.5553 11.5056 46.5122 11.5236 46.4804 11.5554C46.4487 11.5873 46.4309 11.6304 46.4311 11.6752V24.859C46.4311 24.952 46.5069 25.029 46.6004 25.029H48.9341C48.9792 25.0287 49.0224 25.0106 49.0541 24.9787C49.0858 24.9469 49.1036 24.9038 49.1035 24.859V20.6978C49.9937 21.6883 51.0714 22.1738 52.3848 22.1738C54.8269 22.1738 57.2993 20.3057 57.2993 16.7341C57.3029 13.1618 54.8303 11.2929 52.3867 11.2929L52.385 11.2931ZM54.5853 16.7341C54.5853 18.5519 53.459 19.8219 51.8443 19.8219C50.2495 19.8219 49.0457 18.4947 49.0457 16.7341C49.0457 14.9734 50.2495 13.6463 51.8443 13.6463C53.4319 13.6463 54.5853 14.9445 54.5853 16.7341ZM63.6334 11.2931C60.4889 11.2931 58.0254 13.6998 58.0254 16.7731C58.0254 19.8131 60.4726 22.1936 63.5956 22.1936C66.7509 22.1936 69.2216 19.7952 69.2216 16.7341C69.2216 13.6834 66.7672 11.2937 63.6334 11.2937V11.2931ZM63.6334 19.8398C61.9611 19.8398 60.6998 18.5035 60.6998 16.7332C60.6998 14.9547 61.9179 13.664 63.5956 13.664C65.2787 13.664 66.5472 14.9997 66.5472 16.772C66.5472 18.5502 65.3219 19.8398 63.6334 19.8398ZM75.936 11.5053H73.3681V8.89603C73.3681 8.80244 73.2924 8.72617 73.1988 8.72617H70.8651C70.8197 8.72627 70.7763 8.74418 70.7442 8.77601C70.7121 8.80783 70.694 8.85098 70.6938 8.89603V11.5051H69.573C69.5279 11.5054 69.4847 11.5234 69.453 11.5553C69.4212 11.5871 69.4035 11.6302 69.4036 11.675V13.6681C69.4035 13.713 69.4212 13.7561 69.453 13.7879C69.4847 13.8198 69.5279 13.8379 69.573 13.8382H70.6938V18.9962C70.6938 21.0793 71.7373 22.1361 73.7971 22.1361C74.6331 22.1361 75.3269 21.964 75.9811 21.5951C76.0075 21.5807 76.0295 21.5594 76.0448 21.5335C76.06 21.5077 76.0679 21.4782 76.0677 21.4482V19.5494C76.0675 19.5207 76.06 19.4924 76.0458 19.4674C76.0316 19.4423 76.0112 19.4213 75.9866 19.4063C75.962 19.3906 75.9337 19.3817 75.9046 19.3804C75.8754 19.3791 75.8465 19.3855 75.8206 19.399C75.372 19.6231 74.9378 19.7268 74.4511 19.7268C73.7033 19.7268 73.3681 19.3882 73.3681 18.6323V13.8393H75.936C75.9811 13.8391 76.0243 13.821 76.0561 13.7891C76.0878 13.7572 76.1056 13.7141 76.1054 13.6693V11.6761C76.1061 11.6539 76.1024 11.6317 76.0943 11.611C76.0862 11.5903 76.0739 11.5714 76.0583 11.5555C76.0426 11.5396 76.0239 11.527 76.0032 11.5185C75.9825 11.51 75.9603 11.5058 75.9379 11.5061L75.936 11.5053ZM84.8814 11.5155V11.195C84.8814 10.2523 85.2454 9.83196 86.0598 9.83196C86.5467 9.83196 86.9376 9.928 87.3756 10.073C87.4012 10.0816 87.4285 10.0839 87.4553 10.0798C87.482 10.0757 87.5074 10.0654 87.5293 10.0496C87.5512 10.0337 87.5689 10.0129 87.5811 9.98892C87.5932 9.96489 87.5994 9.93832 87.5991 9.91143L87.5989 7.95728C87.5994 7.92077 87.5878 7.88512 87.5661 7.85572C87.5443 7.82632 87.5135 7.80479 87.4782 7.79438C87.0169 7.65767 86.4258 7.51756 85.5392 7.51756C83.3857 7.51756 82.245 8.72372 82.245 11.0044V11.4952H81.1242C81.0788 11.4953 81.0354 11.5132 81.0033 11.545C80.9712 11.5768 80.9531 11.62 80.9529 11.665V13.6683C80.9529 13.7619 81.0306 13.8384 81.1242 13.8384H82.245V21.7923C82.245 21.8872 82.3227 21.9625 82.4162 21.9625H84.748C84.8435 21.9625 84.9193 21.8872 84.9193 21.7923V13.8388H87.098L90.4354 21.7921C90.0569 22.6269 89.6839 22.7933 89.1756 22.7933C88.7648 22.7933 88.3306 22.6717 87.8892 22.4299C87.8473 22.4089 87.799 22.4043 87.7539 22.4173C87.7316 22.4247 87.7112 22.4367 87.6938 22.4524C87.6764 22.4681 87.6625 22.4873 87.6529 22.5086L86.862 24.2336C86.8437 24.2728 86.8412 24.3174 86.855 24.3583C86.8687 24.3992 86.8976 24.4334 86.9358 24.4539C87.7611 24.8982 88.5053 25.088 89.4262 25.088C91.1489 25.088 92.1022 24.2891 92.9402 22.1433L96.9877 11.7475C96.9982 11.7218 97.0021 11.6939 96.9989 11.6663C96.9958 11.6387 96.9857 11.6124 96.9697 11.5897C96.9545 11.5669 96.9338 11.5483 96.9096 11.5354C96.8854 11.5225 96.8583 11.5158 96.8308 11.5159H94.4016C94.366 11.5157 94.3313 11.5266 94.3022 11.547C94.2731 11.5674 94.2512 11.5964 94.2395 11.6298L91.7508 18.6933L89.0261 11.6251C89.0139 11.5931 88.9922 11.5655 88.9639 11.546C88.9356 11.5265 88.902 11.516 88.8675 11.5159H84.8814V11.5155ZM79.6951 11.5053H77.3614C77.3162 11.5055 77.2728 11.5235 77.2408 11.5553C77.2087 11.5871 77.1906 11.6302 77.1904 11.6752V21.7923C77.1904 21.8872 77.2678 21.9625 77.3614 21.9625H79.6951C79.7889 21.9625 79.8664 21.8872 79.8664 21.7923V11.6759C79.8665 11.6536 79.8621 11.6314 79.8535 11.6107C79.8449 11.5901 79.8323 11.5713 79.8164 11.5555C79.8005 11.5397 79.7815 11.5271 79.7607 11.5186C79.7399 11.5101 79.7176 11.5058 79.6951 11.5059V11.5053ZM78.5417 6.89838C77.6172 6.89838 76.8677 7.64222 76.8677 8.56083C76.8677 8.77935 76.911 8.99573 76.9951 9.19763C77.0792 9.39952 77.2025 9.58296 77.358 9.73748C77.5134 9.892 77.698 10.0146 77.9011 10.0982C78.1042 10.1818 78.3219 10.2248 78.5417 10.2248C79.4663 10.2248 80.214 9.48019 80.214 8.56083C80.2139 8.11998 80.0377 7.69722 79.7241 7.38548C79.4105 7.07373 78.9852 6.89853 78.5417 6.89838Z" fill="#1ED760"/>
</svg>
