<svg width="100" height="100" viewBox="0 0 100 100" fill="none" xmlns="http://www.w3.org/2000/svg">
<path d="M49.9999 94.7916C25.2916 94.7916 5.20825 74.7082 5.20825 49.9999C5.20825 25.2916 25.2916 5.20825 49.9999 5.20825C74.7082 5.20825 94.7916 25.2916 94.7916 49.9999C94.7916 74.7082 74.7082 94.7916 49.9999 94.7916ZM49.9999 11.4583C28.7499 11.4583 11.4583 28.7499 11.4583 49.9999C11.4583 71.2499 28.7499 88.5416 49.9999 88.5416C71.2499 88.5416 88.5416 71.2499 88.5416 49.9999C88.5416 28.7499 71.2499 11.4583 49.9999 11.4583Z" fill="#09BE52"/>
<path d="M44.0833 64.9166C43.2499 64.9166 42.4583 64.5833 41.8749 63.9999L30.0833 52.2083C28.8749 50.9999 28.8749 48.9999 30.0833 47.7916C31.2916 46.5833 33.2916 46.5833 34.4999 47.7916L44.0833 57.3749L65.4999 35.9583C66.7083 34.7499 68.7083 34.7499 69.9166 35.9583C71.1249 37.1666 71.1249 39.1666 69.9166 40.3749L46.2916 63.9999C45.7083 64.5833 44.9166 64.9166 44.0833 64.9166Z" fill="#09BE52"/>
</svg>
